<svg width="22" height="24" viewBox="0 0 22 24" fill="none" xmlns="http://www.w3.org/2000/svg">
<g id="Logo">
<path id="Vector" d="M8.58395 19.4672H4.31109V15.2028L2.17676 16.2049V21.6016H4.31109H8.57975L8.58395 19.4672Z" fill="#00A0DF"/>
<path id="Vector_2" d="M13.6206 4.53582H17.8893V8.80029L20.0236 7.79812V2.40149H17.8893H13.6206V4.53582Z" fill="#00A0DF"/>
<path id="Vector_3" d="M11.7363 13.2286C14.2522 13.2286 15.1872 12.0671 15.1872 10.7127V9.52607C15.1872 8.16328 14.1599 6.68728 11.8327 6.68728H9.98769C9.08947 6.65872 8.21598 6.98426 7.55554 7.59372C6.89509 8.20319 6.50058 9.04776 6.45703 9.94538C6.45703 10.306 6.45703 12.9309 6.45703 13.2245C6.45703 15.2498 8.35235 17.338 11.0695 17.338C12.5357 17.3521 13.9524 16.808 15.0321 15.8158L13.7741 14.0883C12.6546 14.8556 12.3401 15.1911 11.124 15.1911C9.90802 15.1911 8.57459 14.5076 8.57459 13.2203L11.7363 13.2286ZM11.7363 8.80064C12.7929 8.80064 13.0361 9.11513 13.0361 9.79862V10.2599C13.0361 11.1656 12.6168 11.0985 11.7069 11.0985H8.58717V9.94538C8.58645 9.78488 8.61936 9.626 8.68379 9.47899C8.74823 9.33198 8.84275 9.2001 8.96127 9.09185C9.07978 8.98361 9.21967 8.90139 9.3719 8.85051C9.52414 8.79964 9.68534 8.78122 9.84513 8.79645L11.7363 8.80064Z" fill="#112E82"/>
</g>
</svg>
