<svg xmlns="http://www.w3.org/2000/svg" width="20" height="20" viewBox="0 0 20 20" fill="none">
  <path d="M9.99998 9.99998C9.99998 9.53974 10.3731 9.16665 10.8333 9.16665H15.8333C16.2936 9.16665 16.6666 9.53974 16.6666 9.99998V15.8333C16.6666 16.2936 16.2936 16.6666 15.8333 16.6666H10.8333C10.3731 16.6666 9.99998 16.2936 9.99998 15.8333V9.99998Z" stroke="#1A75FF" stroke-width="1.25" stroke-linecap="round"/>
  <path d="M3.33331 4.16665C3.33331 3.70641 3.70641 3.33331 4.16665 3.33331H6.66665C7.12688 3.33331 7.49998 3.70641 7.49998 4.16665V15.8333C7.49998 16.2936 7.12688 16.6666 6.66665 16.6666H4.16665C3.70641 16.6666 3.33331 16.2936 3.33331 15.8333V4.16665Z" stroke="#1A75FF" stroke-width="1.25" stroke-linecap="round"/>
  <path d="M9.99998 4.16665C9.99998 3.70641 10.3731 3.33331 10.8333 3.33331H15.8333C16.2936 3.33331 16.6666 3.70641 16.6666 4.16665V5.83331C16.6666 6.29355 16.2936 6.66665 15.8333 6.66665H10.8333C10.3731 6.66665 9.99998 6.29355 9.99998 5.83331V4.16665Z" stroke="#1A75FF" stroke-width="1.25" stroke-linecap="round"/>
</svg>